<mxfile host="app.diagrams.net" modified="2022-11-15T07:00:37.275Z" agent="5.0 (Windows NT 10.0; Win64; x64) AppleWebKit/537.36 (KHTML, like Gecko) Chrome/103.0.5060.114 Safari/537.36 Edg/103.0.1264.62" etag="NC9eFScbLHxW69Di5pdZ" version="20.5.2" type="github">
  <diagram id="ksh-pp0v2cpnR2chbK7a" name="第 1 页">
    <mxGraphModel dx="630" dy="403" grid="1" gridSize="10" guides="1" tooltips="1" connect="1" arrows="1" fold="1" page="1" pageScale="1" pageWidth="827" pageHeight="1169" math="0" shadow="0">
      <root>
        <mxCell id="0" />
        <mxCell id="1" parent="0" />
        <mxCell id="XgorDuyv0Z5RKWawABNv-10" value="" style="edgeStyle=orthogonalEdgeStyle;rounded=0;orthogonalLoop=1;jettySize=auto;html=1;" parent="1" source="XgorDuyv0Z5RKWawABNv-4" target="XgorDuyv0Z5RKWawABNv-9" edge="1">
          <mxGeometry relative="1" as="geometry" />
        </mxCell>
        <mxCell id="XgorDuyv0Z5RKWawABNv-4" value="ZERO" style="ellipse;whiteSpace=wrap;html=1;" parent="1" vertex="1">
          <mxGeometry x="380" y="160" width="60" height="40" as="geometry" />
        </mxCell>
        <mxCell id="XgorDuyv0Z5RKWawABNv-12" value="drx&amp;lt;dry" style="edgeStyle=orthogonalEdgeStyle;rounded=0;orthogonalLoop=1;jettySize=auto;html=1;" parent="1" source="XgorDuyv0Z5RKWawABNv-9" target="XgorDuyv0Z5RKWawABNv-11" edge="1">
          <mxGeometry relative="1" as="geometry" />
        </mxCell>
        <mxCell id="XgorDuyv0Z5RKWawABNv-15" value="else" style="edgeStyle=orthogonalEdgeStyle;rounded=0;orthogonalLoop=1;jettySize=auto;html=1;" parent="1" source="XgorDuyv0Z5RKWawABNv-9" target="XgorDuyv0Z5RKWawABNv-14" edge="1">
          <mxGeometry relative="1" as="geometry">
            <Array as="points">
              <mxPoint x="410" y="220" />
            </Array>
          </mxGeometry>
        </mxCell>
        <mxCell id="XgorDuyv0Z5RKWawABNv-47" value="exit" style="edgeStyle=orthogonalEdgeStyle;rounded=0;orthogonalLoop=1;jettySize=auto;html=1;exitX=1;exitY=0.5;exitDx=0;exitDy=0;" parent="1" source="XgorDuyv0Z5RKWawABNv-9" target="XgorDuyv0Z5RKWawABNv-37" edge="1">
          <mxGeometry relative="1" as="geometry">
            <Array as="points">
              <mxPoint x="510" y="240" />
            </Array>
          </mxGeometry>
        </mxCell>
        <mxCell id="XgorDuyv0Z5RKWawABNv-9" value="TEN" style="ellipse;whiteSpace=wrap;html=1;" parent="1" vertex="1">
          <mxGeometry x="380" y="220" width="60" height="40" as="geometry" />
        </mxCell>
        <mxCell id="kRQd6qE-_CSu6kWgtyuf-3" style="edgeStyle=orthogonalEdgeStyle;rounded=0;orthogonalLoop=1;jettySize=auto;html=1;exitX=0.5;exitY=1;exitDx=0;exitDy=0;entryX=0.5;entryY=0;entryDx=0;entryDy=0;" edge="1" parent="1" source="XgorDuyv0Z5RKWawABNv-11" target="XgorDuyv0Z5RKWawABNv-24">
          <mxGeometry relative="1" as="geometry" />
        </mxCell>
        <mxCell id="XgorDuyv0Z5RKWawABNv-11" value="ONE" style="ellipse;whiteSpace=wrap;html=1;" parent="1" vertex="1">
          <mxGeometry x="290" y="280" width="60" height="40" as="geometry" />
        </mxCell>
        <mxCell id="XgorDuyv0Z5RKWawABNv-54" style="edgeStyle=orthogonalEdgeStyle;rounded=0;orthogonalLoop=1;jettySize=auto;html=1;exitX=1;exitY=1;exitDx=0;exitDy=0;entryX=1;entryY=0;entryDx=0;entryDy=0;" parent="1" source="XgorDuyv0Z5RKWawABNv-14" target="XgorDuyv0Z5RKWawABNv-32" edge="1">
          <mxGeometry relative="1" as="geometry" />
        </mxCell>
        <mxCell id="XgorDuyv0Z5RKWawABNv-14" value="EIGHT" style="ellipse;whiteSpace=wrap;html=1;" parent="1" vertex="1">
          <mxGeometry x="380" y="280" width="60" height="40" as="geometry" />
        </mxCell>
        <mxCell id="XgorDuyv0Z5RKWawABNv-21" value="ef" style="edgeStyle=orthogonalEdgeStyle;rounded=0;orthogonalLoop=1;jettySize=auto;html=1;" parent="1" source="XgorDuyv0Z5RKWawABNv-20" target="XgorDuyv0Z5RKWawABNv-4" edge="1">
          <mxGeometry relative="1" as="geometry" />
        </mxCell>
        <mxCell id="XgorDuyv0Z5RKWawABNv-20" value="ELEVEN" style="ellipse;whiteSpace=wrap;html=1;" parent="1" vertex="1">
          <mxGeometry x="470" y="160" width="60" height="40" as="geometry" />
        </mxCell>
        <mxCell id="XgorDuyv0Z5RKWawABNv-27" value="" style="edgeStyle=orthogonalEdgeStyle;rounded=0;orthogonalLoop=1;jettySize=auto;html=1;" parent="1" source="XgorDuyv0Z5RKWawABNv-24" target="XgorDuyv0Z5RKWawABNv-26" edge="1">
          <mxGeometry relative="1" as="geometry" />
        </mxCell>
        <mxCell id="XgorDuyv0Z5RKWawABNv-24" value="THREE" style="ellipse;whiteSpace=wrap;html=1;" parent="1" vertex="1">
          <mxGeometry x="290" y="340" width="60" height="40" as="geometry" />
        </mxCell>
        <mxCell id="kRQd6qE-_CSu6kWgtyuf-2" style="edgeStyle=orthogonalEdgeStyle;rounded=0;orthogonalLoop=1;jettySize=auto;html=1;exitX=1;exitY=0.5;exitDx=0;exitDy=0;entryX=0;entryY=0.5;entryDx=0;entryDy=0;" edge="1" parent="1" source="XgorDuyv0Z5RKWawABNv-26" target="XgorDuyv0Z5RKWawABNv-32">
          <mxGeometry relative="1" as="geometry" />
        </mxCell>
        <mxCell id="XgorDuyv0Z5RKWawABNv-26" value="FOUR" style="ellipse;whiteSpace=wrap;html=1;" parent="1" vertex="1">
          <mxGeometry x="290" y="400" width="60" height="40" as="geometry" />
        </mxCell>
        <mxCell id="XgorDuyv0Z5RKWawABNv-50" value="i!=31" style="edgeStyle=orthogonalEdgeStyle;rounded=0;orthogonalLoop=1;jettySize=auto;html=1;exitX=1;exitY=0.5;exitDx=0;exitDy=0;entryX=1;entryY=1;entryDx=0;entryDy=0;curved=1;" parent="1" source="XgorDuyv0Z5RKWawABNv-32" target="XgorDuyv0Z5RKWawABNv-9" edge="1">
          <mxGeometry relative="1" as="geometry">
            <Array as="points">
              <mxPoint x="460" y="420" />
              <mxPoint x="460" y="254" />
            </Array>
          </mxGeometry>
        </mxCell>
        <mxCell id="XgorDuyv0Z5RKWawABNv-53" value="i=31" style="edgeStyle=orthogonalEdgeStyle;rounded=0;orthogonalLoop=1;jettySize=auto;html=1;entryX=0;entryY=1;entryDx=0;entryDy=0;exitX=0;exitY=0;exitDx=0;exitDy=0;" parent="1" source="XgorDuyv0Z5RKWawABNv-32" target="XgorDuyv0Z5RKWawABNv-14" edge="1">
          <mxGeometry relative="1" as="geometry">
            <mxPoint x="370" y="370" as="sourcePoint" />
          </mxGeometry>
        </mxCell>
        <mxCell id="XgorDuyv0Z5RKWawABNv-32" value="SIX" style="ellipse;whiteSpace=wrap;html=1;" parent="1" vertex="1">
          <mxGeometry x="380" y="400" width="60" height="40" as="geometry" />
        </mxCell>
        <mxCell id="XgorDuyv0Z5RKWawABNv-41" value="" style="edgeStyle=orthogonalEdgeStyle;rounded=0;orthogonalLoop=1;jettySize=auto;html=1;" parent="1" source="XgorDuyv0Z5RKWawABNv-37" target="XgorDuyv0Z5RKWawABNv-40" edge="1">
          <mxGeometry relative="1" as="geometry">
            <mxPoint x="690" y="340" as="targetPoint" />
            <Array as="points">
              <mxPoint x="510" y="330" />
              <mxPoint x="510" y="330" />
            </Array>
          </mxGeometry>
        </mxCell>
        <mxCell id="XgorDuyv0Z5RKWawABNv-37" value="NINE" style="ellipse;whiteSpace=wrap;html=1;" parent="1" vertex="1">
          <mxGeometry x="480" y="280" width="60" height="40" as="geometry" />
        </mxCell>
        <mxCell id="XgorDuyv0Z5RKWawABNv-42" style="edgeStyle=orthogonalEdgeStyle;rounded=0;orthogonalLoop=1;jettySize=auto;html=1;entryX=1;entryY=0.5;entryDx=0;entryDy=0;curved=1;" parent="1" source="XgorDuyv0Z5RKWawABNv-40" target="XgorDuyv0Z5RKWawABNv-20" edge="1">
          <mxGeometry relative="1" as="geometry">
            <mxPoint x="550" y="430" as="sourcePoint" />
            <mxPoint x="420" y="100" as="targetPoint" />
            <Array as="points">
              <mxPoint x="550" y="360" />
              <mxPoint x="550" y="180" />
            </Array>
          </mxGeometry>
        </mxCell>
        <mxCell id="XgorDuyv0Z5RKWawABNv-40" value="FOUR&lt;br&gt;TEEN" style="ellipse;whiteSpace=wrap;html=1;" parent="1" vertex="1">
          <mxGeometry x="480" y="340" width="60" height="40" as="geometry" />
        </mxCell>
        <mxCell id="XgorDuyv0Z5RKWawABNv-51" value="rstn" style="endArrow=classic;html=1;rounded=0;entryX=0.5;entryY=0;entryDx=0;entryDy=0;" parent="1" edge="1" target="XgorDuyv0Z5RKWawABNv-20">
          <mxGeometry width="50" height="50" relative="1" as="geometry">
            <mxPoint x="500" y="130" as="sourcePoint" />
            <mxPoint x="290" y="180" as="targetPoint" />
          </mxGeometry>
        </mxCell>
        <mxCell id="XgorDuyv0Z5RKWawABNv-55" value="!ef" style="edgeStyle=orthogonalEdgeStyle;rounded=0;orthogonalLoop=1;jettySize=auto;html=1;exitX=0;exitY=1;exitDx=0;exitDy=0;entryX=1;entryY=1;entryDx=0;entryDy=0;" parent="1" source="XgorDuyv0Z5RKWawABNv-20" target="XgorDuyv0Z5RKWawABNv-20" edge="1">
          <mxGeometry relative="1" as="geometry">
            <Array as="points">
              <mxPoint x="479" y="220" />
              <mxPoint x="521" y="220" />
            </Array>
            <mxPoint x="540" y="210" as="targetPoint" />
          </mxGeometry>
        </mxCell>
      </root>
    </mxGraphModel>
  </diagram>
</mxfile>
